<?xml version="1.0" encoding="utf-8"?>
<!-- Generator: Adobe Illustrator 21.1.0, SVG Export Plug-In . SVG Version: 6.00 Build 0)  -->
<svg version="1.1" id="Livello_1" xmlns="http://www.w3.org/2000/svg" xmlns:xlink="http://www.w3.org/1999/xlink" x="0px" y="0px"
	 viewBox="0 0 388.5 139.5" style="enable-background:new 0 0 388.5 139.5;" xml:space="preserve">
<style type="text/css">
	.st0{fill:#FFFFFF;}
	.st1{fill:#010101;}
	.st2{fill:none;stroke:#000000;stroke-width:2.9172;stroke-miterlimit:10;}
	.st3{fill:none;stroke:#010101;stroke-width:2.9172;stroke-linejoin:round;}
</style>
<rect class="st0" width="388.5" height="139.5"/>
<title>Tavola disegno 1</title>
<path d="M309.3,119.5h20.9c2.2,0,3.9-1.8,3.9-3.9V63.2c0-2.2-1.8-3.9-3.9-3.9h-20.9c-2.2,0-3.9,1.8-3.9,3.9v52.4
	C305.4,117.7,307.1,119.5,309.3,119.5C309.3,119.5,309.3,119.5,309.3,119.5z"/>
<path class="st0" d="M308.8,110.4h21.8v-43h-21.8V110.4z M316.6,65.1h6.2c0.3,0,0.5-0.3,0.5-0.6v-0.1c0-0.3-0.2-0.6-0.5-0.6h-6.2
	c-0.3,0-0.5,0.3-0.5,0.6v0.1C316,64.9,316.3,65.1,316.6,65.1z"/>
<path class="st0" d="M317.5,115c0,1.2,1,2.2,2.2,2.2c1.2,0,2.2-1,2.2-2.2c0-1.2-1-2.2-2.2-2.2C318.5,112.8,317.5,113.8,317.5,115
	C317.5,115,317.5,115,317.5,115z"/>
<path class="st1" d="M314.8,95.7c1-0.4,1.9-0.8,2.8-1.2c0.1,0,0.2-0.2,0.2-0.2c-0.2-1-0.1-2,0.1-2.9c0.2-2.2-0.6-4.3-2.2-5.9
	c-0.6-0.7-1.8-0.8-2.5-0.1c-0.2,0.2-0.3,0.4-0.4,0.6c-0.8,1.7-0.9,3.6-0.2,5.3C313.1,92.9,313.9,94.3,314.8,95.7L314.8,95.7z"/>
<path class="st1" d="M325.3,91.2c0.1-0.2,0.2-0.4,0.3-0.6c0.9-1.6,1.5-3.3,1.8-5c0.2-1.4-0.1-2.8-0.7-4c-0.4-0.9-1.5-1.3-2.5-0.9
	c-0.3,0.1-0.6,0.3-0.7,0.6c-1.5,1.8-2,4.3-1.4,6.6c0.2,0.7,0.3,1.3,0.2,2c0,0.1,0.1,0.3,0.2,0.3C323.4,90.5,324.3,90.8,325.3,91.2z"
	/>
<path class="st1" d="M319.5,98.3c-0.1-1-0.6-2-1.2-2.9c-0.1-0.1-0.2-0.1-0.3-0.1c-0.8,0.3-1.7,0.6-2.5,0.9c-0.1,0.1-0.2,0.2-0.2,0.3
	c0.1,1,0.5,2,1.2,2.8c0.2,0.2,0.4,0.4,0.7,0.5C318.3,100.6,319.5,99.9,319.5,98.3z"/>
<path class="st1" d="M320.7,94.1c-0.1,0.7,0.3,1.3,0.9,1.6c0.7,0.3,1.5,0.1,2-0.4c0.7-0.7,1.1-1.6,1.2-2.6c0.1-0.8,0.1-0.8-0.7-1
	c-0.7-0.2-1.3-0.4-2-0.6c-0.2-0.1-0.4,0-0.5,0.1c0,0,0,0,0,0C321.2,92.1,320.8,93.1,320.7,94.1L320.7,94.1z"/>
<path class="st2" d="M168.5,11.9h9.3v118.5h-7.2 M379,121.1v9.3H261.1v-7.3"/>
<path class="st3" d="M193,40.2c0,0,69.2-7.5,69.2,64.4l-11.7-10.3"/>
<line class="st2" x1="272.1" y1="93" x2="262" y2="104.8"/>
<polyline class="st0" points="125.7,98.1 129,82.1 135,82.1 138.3,98.2 125.7,98.3 "/>
<polygon class="st0" points="129.4,76.1 131.1,62.2 132.6,62.2 134.2,76.1 129.4,76.1 "/>
<path class="st0" d="M80.8,81.8h9.9c0.5,0,1-0.5,1-1v-9.2c0-4.6-3.7-9.5-4.6-10.4c-0.6-0.8-1.6-0.9-2.4-0.3
	c-0.1,0.1-0.2,0.2-0.3,0.3c-0.7,0.8-4.6,5.8-4.6,10.4v9.2C79.9,81.3,80.3,81.8,80.8,81.8z M81.9,71.6c0-3.7,3.1-7.8,3.9-8.8
	c0.8,1,3.9,5.1,3.9,8.8v8.2h-7.8C81.9,79.8,81.9,71.6,81.9,71.6z"/>
<path d="M85.8,123.6v-2h-5.4v-14.8c0-3,2.3-5.4,5.3-5.4c0,0,0.1,0,0.1,0V29.1c-0.3,0-0.5,0.1-0.7,0.3l-8.7,7.5v-4.1c0-0.5-0.5-1-1-1
	h-0.5v-9.5c0-0.5-0.5-1-1-1h-0.3l-0.8-9.5c0-0.5-0.5-1-1-1c-0.5,0-1,0.4-1,0.9c0,0,0,0.1,0,0.1l-0.8,9.5h-0.3
	c-0.4,0-0.7,0.2-0.8,0.5c-0.2-0.3-0.5-0.5-0.8-0.5h-0.3l-0.8-9.5c0-0.5-0.5-1-1-1c-0.5,0-1,0.4-1,0.9c0,0,0,0.1,0,0.1l-0.8,9.5h-0.3
	c-0.5,0-1,0.5-1,1v9.5H62c-0.5,0-1,0.5-1,1v17.5l-9.9,8.5v-8c0-0.5-0.5-1-1-1h-0.5v-9.5c0-0.5-0.5-1-1-1h-0.3l-0.8-9.5
	c0-0.5-0.5-1-1-1c-0.5,0-1,0.4-1,0.9c0,0,0,0.1,0,0.1l-0.8,9.5h-0.3c-0.5,0-1,0.5-1,1v9.5h-0.5c-0.5,0-1,0.5-1,1v16.1L29.2,77.6
	c-0.2-0.4-0.6-0.7-1-0.7H28V57c0-0.5-0.5-1-1-1h-0.7l-0.7-11.7c0-0.6-0.5-1-1.1-1c-0.5,0-1,0.4-1,1L22.9,56h-2.4l-0.7-11.7
	c0-0.6-0.5-1-1.1-1c-0.5,0-1,0.4-1,1L17,56h-0.7c-0.5,0-1,0.5-1,1v20.2h-0.3c-0.5,0-1,0.5-1,1v43.3h-2.2c-1.3,0-2.3,1-2.4,2.3
	c0,0,0,0.1,0,0.1v5.4c0,1.3,1,2.3,2.3,2.4c0,0,0.1,0,0.1,0h74.1v-2 M11.3,123.9c0-0.2,0.2-0.3,0.3-0.3 M53.5,114.1
	c0-1.3,1.1-2.4,2.4-2.4c1.3,0,2.4,1.1,2.4,2.4c0,0,0,0,0,0v7.5h-4.8V114.1z M32.9,114.1c0-1.3,1.1-2.4,2.4-2.4
	c1.3,0,2.4,1.1,2.4,2.4c0,0,0,0,0,0v7.5h-4.8V114.1z"/>
<polygon points="85.8,19.5 85.7,19.5 85.7,19.6 85.8,19.6 85.8,19.5 "/>
<path d="M85.8,129.7v2h74.1c1.3,0,2.3-1,2.4-2.3c0,0,0-0.1,0-0.1v-5.4c0-1.3-1-2.3-2.3-2.4c0,0-0.1,0-0.1,0h-2.2V78.2
	c0-0.5-0.5-1-1-1h-0.3V57c0-0.5-0.5-1-1-1h-0.7l-0.9-11.7c0-0.6-0.5-1-1-1s-1,0.5-1,1L151,56h-2.4l-0.7-11.7c0-0.6-0.5-1-1.1-1
	c-0.5,0-1,0.4-1,1L145.2,56h-0.7c-0.5,0-1,0.5-1,1v19.9h-0.2c-0.4,0-0.8,0.3-1,0.7l-12.4-10.7V50.7c0-0.5-0.5-1-1-1h-0.5v-9.5
	c0-0.5-0.5-1-1-1h-0.3l-0.8-9.5c0-0.5-0.4-1-0.9-1c0,0-0.1,0-0.1,0c-0.5,0-1,0.5-1,1l-0.8,9.5H123c-0.5,0-1,0.5-1,1v9.5h-0.5
	c-0.5,0-1,0.5-1,1v8l-9.9-8.5V32.7c0-0.5-0.5-1-1-1h-0.3v-9.5c0-0.5-0.5-1-1-1h-0.3l-0.8-9.5c0-0.5-0.4-1-0.9-1c0,0-0.1,0-0.1,0
	c-0.5,0-1,0.5-1,1l-0.8,9.5h-0.3c-0.4,0-0.7,0.2-0.8,0.5c-0.2-0.3-0.5-0.5-0.8-0.5h-0.3l-0.8-9.5c0-0.5-0.4-1-0.9-1c0,0-0.1,0-0.1,0
	c-0.5,0-1,0.5-1,1L98,21.1h-0.3c-0.5,0-1,0.5-1,1v9.5h-0.5c-0.5,0-1,0.5-1,1v4.1l-8.7-7.5c-0.2-0.2-0.4-0.3-0.7-0.3v72.3
	c3,0,5.4,2.3,5.4,5.3c0,0,0,0.1,0,0.1v14.8h-5.4v2 M159.8,123.6c0.2,0,0.3,0.2,0.3,0.3 M118,121.6h-4.8v-7.5c0-1.3,1.1-2.4,2.4-2.4
	s2.4,1.1,2.4,2.4l0,0V121.6z M138.6,121.6h-4.8v-7.5c0-1.3,1.1-2.4,2.4-2.4c1.3,0,2.4,1.1,2.4,2.4c0,0,0,0,0,0V121.6z"/>
<polygon points="85.8,19.5 85.8,19.5 85.8,19.6 85.8,19.6 85.8,19.5 "/>
<path class="st0" d="M52.3,96h7.3c0.5,0,1-0.5,1-1v-4.6c0-3.6-2.9-7.1-3.4-7.8c-0.3-0.3-0.7-0.6-1.2-0.7c-0.5,0-1,0.2-1.3,0.7
	c-0.5,0.7-3.3,4.2-3.3,7.8V95c-0.1,0.5,0.2,0.9,0.7,1C52.2,96,52.2,96,52.3,96z"/>
<path class="st0" d="M82,88.9h7.3c0.5,0,1-0.5,1-1v-4.6c0-3.6-2.9-7.1-3.4-7.8c-0.3-0.4-0.7-0.6-1.2-0.7c-0.5,0-1,0.2-1.3,0.7
	c-0.5,0.7-3.3,4.2-3.3,7.8v4.6c-0.1,0.5,0.2,0.9,0.7,1C81.8,88.9,81.9,88.9,82,88.9z"/>
<path class="st0" d="M79.8,68.5h11.6c0.9-0.1,1.6-0.8,1.6-1.6v-7.3c0-5.7-4.6-11.3-5.4-12.4c-0.5-0.6-1.2-0.9-1.9-1.1
	c-0.8,0-1.6,0.4-2.1,1.1c-0.8,1.1-5.2,6.7-5.2,12.4v7.3c-0.1,0.7,0.3,1.4,1.1,1.6C79.6,68.5,79.7,68.5,79.8,68.5z"/>
<path class="st0" d="M111.8,96h7.3c0.5,0,1-0.5,1-1v-4.6c0-3.6-2.9-7.1-3.4-7.8c-0.3-0.3-0.7-0.6-1.2-0.7c-0.5,0-1,0.2-1.3,0.7
	c-0.5,0.7-3.3,4.2-3.3,7.8V95c-0.1,0.5,0.2,0.9,0.7,1C111.7,96,111.7,96,111.8,96z"/>
</svg>
